<svg width="456" height="134" viewBox="0 0 456 134" fill="none" xmlns="http://www.w3.org/2000/svg">
<line x1="129.509" y1="50.7471" x2="129.509" y2="117" stroke="black" stroke-width="6"/>
<line y1="-3" x2="96.9369" y2="-3" transform="matrix(-0.769807 -0.638277 -0.769807 0.638277 145 66.6259)" stroke="black" stroke-width="6"/>
<line y1="-3" x2="66.2529" y2="-3" transform="matrix(-5.2719e-08 1 1 3.62428e-08 23.4906 50.7471)" stroke="black" stroke-width="6"/>
<line y1="-3" x2="96.9369" y2="-3" transform="matrix(0.769807 -0.638277 0.769807 0.638277 5 66.6259)" stroke="black" stroke-width="6"/>
<rect x="60" y="69" width="29.5937" height="46" fill="#D4ECC8" stroke="black" stroke-width="4"/>
<circle cx="83" cy="94.3438" r="2.34375" fill="#066250"/>
<path d="M150.4 116V74H156.4V92.6H171.4V74H177.4V116H171.4V96.8H156.4V116H150.4ZM198.693 116.6C194.653 116.6 191.493 115.28 189.213 112.64C186.933 110 185.793 106.12 185.793 101C185.793 95.88 186.933 92 189.213 89.36C191.493 86.72 194.653 85.4 198.693 85.4C202.693 85.4 205.833 86.72 208.113 89.36C210.433 92 211.593 95.88 211.593 101C211.593 106.12 210.433 110 208.113 112.64C205.833 115.28 202.693 116.6 198.693 116.6ZM198.693 112.4C200.773 112.4 202.433 111.5 203.673 109.7C204.953 107.86 205.593 104.96 205.593 101C205.593 97.04 204.953 94.16 203.673 92.36C202.433 90.52 200.773 89.6 198.693 89.6C196.613 89.6 194.933 90.52 193.653 92.36C192.413 94.16 191.793 97.04 191.793 101C191.793 104.96 192.413 107.86 193.653 109.7C194.933 111.5 196.613 112.4 198.693 112.4ZM219.109 86H223.309L223.909 89.6H224.209C224.769 88.96 225.489 88.26 226.369 87.5C228.249 86.1 230.229 85.4 232.309 85.4C234.629 85.4 236.649 86.1 238.369 87.5C239.169 88.22 239.749 88.92 240.109 89.6C240.669 89 241.489 88.3 242.569 87.5C244.809 86.1 246.989 85.4 249.109 85.4C250.909 85.4 252.529 85.84 253.969 86.72C255.449 87.56 256.609 88.76 257.449 90.32C258.289 91.88 258.709 93.64 258.709 95.6V116H252.709V95.6C252.709 93.96 252.209 92.6 251.209 91.52C250.209 90.44 249.009 89.9 247.609 89.9C246.369 89.9 245.049 90.4 243.649 91.4C243.209 91.68 242.629 92.18 241.909 92.9V116H235.909V95.6C235.909 93.96 235.409 92.6 234.409 91.52C233.409 90.44 232.209 89.9 230.809 89.9C229.529 89.9 228.209 90.5 226.849 91.7C226.329 92.14 225.749 92.74 225.109 93.5V116H219.109V86ZM279.091 116.6C274.931 116.6 271.691 115.28 269.371 112.64C267.051 110 265.891 106.12 265.891 101C265.891 95.92 267.011 92.06 269.251 89.42C271.491 86.74 274.471 85.4 278.191 85.4C281.911 85.4 284.891 86.74 287.131 89.42C289.371 92.06 290.491 95.92 290.491 101V101.9L289.291 103.1H271.891C271.891 106.18 272.571 108.5 273.931 110.06C275.291 111.62 277.211 112.4 279.691 112.4C281.171 112.4 282.711 111.96 284.311 111.08C285.151 110.6 285.811 110.14 286.291 109.7H286.891L288.991 113.3C288.271 113.9 287.371 114.46 286.291 114.98C284.211 116.06 281.811 116.6 279.091 116.6ZM284.491 98.9C284.491 95.74 283.911 93.4 282.751 91.88C281.631 90.36 280.111 89.6 278.191 89.6C276.271 89.6 274.731 90.36 273.571 91.88C272.451 93.4 271.891 95.74 271.891 98.9H284.491ZM298.584 116V74H321.984V78.2H304.584V92.6H318.384V96.8H304.584V116H298.584ZM330.684 81.2C329.644 81.2 328.784 80.86 328.104 80.18C327.424 79.5 327.084 78.64 327.084 77.6C327.084 76.56 327.424 75.7 328.104 75.02C328.784 74.34 329.644 74 330.684 74C331.724 74 332.584 74.34 333.264 75.02C333.944 75.7 334.284 76.56 334.284 77.6C334.284 78.64 333.944 79.5 333.264 80.18C332.584 80.86 331.724 81.2 330.684 81.2ZM327.684 116V86H333.684V116H327.684ZM342.684 86H346.884L347.484 89.6H347.784C348.224 88.96 348.924 88.26 349.884 87.5C351.844 86.1 354.044 85.4 356.484 85.4C359.484 85.4 361.924 86.36 363.804 88.28C365.724 90.16 366.684 92.6 366.684 95.6V116H360.684V95.6C360.684 93.92 360.144 92.56 359.064 91.52C358.024 90.44 356.664 89.9 354.984 89.9C353.504 89.9 352.004 90.5 350.484 91.7C349.844 92.26 349.244 92.86 348.684 93.5V116H342.684V86ZM384.679 116.6C382.719 116.6 380.919 116.02 379.279 114.86C377.639 113.66 376.319 111.9 375.319 109.58C374.359 107.22 373.879 104.36 373.879 101C373.879 95.92 374.979 92.06 377.179 89.42C379.379 86.74 382.279 85.4 385.879 85.4C387.239 85.4 388.779 85.7 390.499 86.3L392.479 87.2V75.8L394.279 74H398.479V116H394.279L393.679 112.4H393.379C392.819 113.2 392.119 113.9 391.279 114.5C389.519 115.9 387.319 116.6 384.679 116.6ZM386.179 112.1C387.659 112.1 389.159 111.5 390.679 110.3C391.359 109.74 391.959 109.14 392.479 108.5V90.8C392.119 90.6 391.579 90.4 390.859 90.2C389.499 89.8 388.139 89.6 386.779 89.6C384.699 89.6 383.019 90.52 381.739 92.36C380.499 94.16 379.879 97.04 379.879 101C379.879 104.8 380.459 107.6 381.619 109.4C382.819 111.2 384.339 112.1 386.179 112.1ZM419.188 116.6C415.028 116.6 411.788 115.28 409.468 112.64C407.148 110 405.988 106.12 405.988 101C405.988 95.92 407.108 92.06 409.348 89.42C411.588 86.74 414.568 85.4 418.288 85.4C422.008 85.4 424.988 86.74 427.228 89.42C429.468 92.06 430.588 95.92 430.588 101V101.9L429.388 103.1H411.988C411.988 106.18 412.668 108.5 414.028 110.06C415.388 111.62 417.308 112.4 419.788 112.4C421.268 112.4 422.808 111.96 424.408 111.08C425.248 110.6 425.908 110.14 426.388 109.7H426.988L429.088 113.3C428.368 113.9 427.468 114.46 426.388 114.98C424.308 116.06 421.908 116.6 419.188 116.6ZM424.588 98.9C424.588 95.74 424.008 93.4 422.848 91.88C421.728 90.36 420.208 89.6 418.288 89.6C416.368 89.6 414.828 90.36 413.668 91.88C412.548 93.4 411.988 95.74 411.988 98.9H424.588ZM437.781 86H441.981L442.581 89.6H442.881C443.281 89 443.961 88.3 444.921 87.5C446.801 86.1 448.921 85.4 451.281 85.4C452.321 85.4 453.241 85.5 454.041 85.7L455.181 86L454.281 90.8H453.681C453.401 90.76 452.981 90.66 452.421 90.5C451.541 90.3 450.661 90.2 449.781 90.2C448.461 90.2 447.041 90.8 445.521 92C445.001 92.44 444.421 93.04 443.781 93.8V116H437.781V86Z" fill="black"/>
</svg>
